<svg width="392" height="333" viewBox="0 0 392 333" fill="none" xmlns="http://www.w3.org/2000/svg">
<path d="M26.8536 0.646447C26.6583 0.451184 26.3417 0.451184 26.1464 0.646447L22.9645 3.82843C22.7692 4.02369 22.7692 4.34027 22.9645 4.53553C23.1597 4.7308 23.4763 4.7308 23.6716 4.53553L26.5 1.70711L29.3284 4.53553C29.5237 4.7308 29.8403 4.7308 30.0355 4.53553C30.2308 4.34027 30.2308 4.02369 30.0355 3.82843L26.8536 0.646447ZM26 1L26 333L27 333L27 1L26 1Z" fill="black"/>
<path d="M391.354 308.854C391.549 308.658 391.549 308.342 391.354 308.146L388.172 304.964C387.976 304.769 387.66 304.769 387.464 304.964C387.269 305.16 387.269 305.476 387.464 305.672L390.293 308.5L387.464 311.328C387.269 311.524 387.269 311.84 387.464 312.036C387.66 312.231 387.976 312.231 388.172 312.036L391.354 308.854ZM0 309H391V308H0V309Z" fill="black"/>
<path d="M111.5 30C123.833 118 186.5 285.6 338.5 252" stroke="black"/>
<path d="M86 55L160.5 169L235 283" stroke="black" stroke-dasharray="2 2"/>
<circle cx="161" cy="169" r="2" fill="black"/>
<circle cx="235" cy="283" r="2" fill="#FF0000"/>
<circle cx="235" cy="241" r="2" fill="#FF0000"/>
<path d="M158.568 327.455C158.398 327.455 158.246 327.44 158.112 327.412C157.979 327.386 157.886 327.361 157.835 327.335L158.091 326.449C158.335 326.511 158.551 326.534 158.739 326.517C158.926 326.5 159.092 326.416 159.237 326.266C159.385 326.118 159.52 325.878 159.642 325.545L159.83 325.034L157.409 318.455H158.5L160.307 323.67H160.375L162.182 318.455H163.273L160.494 325.955C160.369 326.293 160.214 326.572 160.03 326.794C159.845 327.018 159.631 327.185 159.386 327.293C159.145 327.401 158.872 327.455 158.568 327.455Z" fill="black"/>
<path d="M231.733 325V324.233L235.449 319.46V319.392H231.852V318.455H236.744V319.256L233.131 323.994V324.062H236.864V325H231.733Z" fill="black"/>
</svg>
